{"title":"Spiderhole 2010 BRRip XViD juggs","uid":8214893,"size":743352217,"categoryP":"video","categoryS":"movies","magnet":"?xt=urn:btih:9ba8bab8fa9281a1ed4f482a6373c7281af250b4&amp;dn=Spiderhole+2010+BRRip+XViD+juggs&amp;tr=udp%3A%2F%2Ftracker.openbittorrent.com%3A80&amp;tr=udp%3A%2F%2Fopen.demonii.com%3A1337&amp;tr=udp%3A%2F%2Ftracker.coppersurfer.tk%3A6969&amp;tr=udp%3A%2F%2Fexodus.desync.com%3A6969","seeders":1,"leechers":1,"uploader":"juggs99","files":3,"time":1362322806,"description":" &lt;a href=&quot;http://www.imdb.com/title/tt1496884/&quot; rel=&quot;nofollow&quot; target=&quot;_NEW&quot;&gt;http://www.imdb.com/title/tt1496884/&lt;/a&gt;\n\nFormat                                   : AVI\nFormat/Info                              : Audio Video Interleave\nFile size                                : 701 MiB\nDuration                                 : 1h 18mn\nOverall bit rate                         : 1 247 Kbps\nWriting library                          : VirtualDub build 32842/release\n\nVideo\nID                                       : 0\nFormat                                   : MPEG-4 Visual\nFormat profile                           : Advanced Simple@L5\nFormat settings, BVOP                    : 4\nFormat settings, QPel                    : No\nFormat settings, GMC                     : No warppoints\nFormat settings, Matrix                  : Default (H.263)\nMuxing mode                              : Packed bitstream\nCodec ID                                 : XVID\nCodec ID/Hint                            : XviD\nDuration                                 : 1h 18mn\nBit rate                                 : 1 109 Kbps\nWidth                                    : 640 pixels\nHeight                                   : 272 pixels\nDisplay aspect ratio                     : 2.35:1\nFrame rate                               : 25.000 fps\nColor space                              : YUV\nChroma subsampling                       : 4:2:0\nBit depth                                : 8 bits\nScan type                                : Progressive\nCompression mode                         : Lossy\nBits/(Pixel*Frame)                       : 0.255\nStream size                              : 623 MiB (89%)\nWriting library                          : XviD 64\n\nAudio\nID                                       : 1\nFormat                                   : MPEG Audio\nFormat version                           : Version 1\nFormat profile                           : Layer 3\nCodec ID                                 : 55\nCodec ID/Hint                            : MP3\nDuration                                 : 1h 18mn\nBit rate mode                            : Constant\nBit rate                                 : 128 Kbps\nChannel(s)                               : 2 channels\nSampling rate                            : 44.1 KHz\nCompression mode                         : Lossy\nStream size                              : 71.9 MiB (10%)\nAlignment                                : Split accross interleaves\nInterleave, duration                     : 40 ms (1.00 video frame)\nInterleave, preload duration             : 500 ms\nWriting library                          : LAME3.99r\nEncoding settings                        : -m s -V 4 -q 3 -lowpass 17 -b 128\n\n\nPlot\nThey say squatting is dead - a term that takes on a sinister double meaning when four homeless art students decide to take up residence in an abandoned London House where a hidden terror lurks.\n\n &lt;a href=&quot;\nhttp://www.shotpix.com/images/68489335978831907296.png&quot; rel=&quot;nofollow&quot; target=&quot;_NEW&quot;&gt;\nhttp://www.shotpix.com/images/68489335978831907296.png&lt;/a&gt; &lt;a href=&quot;\nhttp://www.shotpix.com/images/31718620682722296568.png&quot; rel=&quot;nofollow&quot; target=&quot;_NEW&quot;&gt;\nhttp://www.shotpix.com/images/31718620682722296568.png&lt;/a&gt; &lt;a href=&quot;\nhttp://www.shotpix.com/images/94682392854873208102.png&quot; rel=&quot;nofollow&quot; target=&quot;_NEW&quot;&gt;\nhttp://www.shotpix.com/images/94682392854873208102.png&lt;/a&gt; &lt;a href=&quot;\nhttp://www.shotpix.com/images/72466941546731034699.png&quot; rel=&quot;nofollow&quot; target=&quot;_NEW&quot;&gt;\nhttp://www.shotpix.com/images/72466941546731034699.png&lt;/a&gt;","torrent":{"xt":"urn:btih:9ba8bab8fa9281a1ed4f482a6373c7281af250b4","amp;dn":"Spiderhole+2010+BRRip+XViD+juggs","amp;tr":["udp%3A%2F%2Ftracker.openbittorrent.com%3A80","udp%3A%2F%2Fopen.demonii.com%3A1337","udp%3A%2F%2Ftracker.coppersurfer.tk%3A6969","udp%3A%2F%2Fexodus.desync.com%3A6969"],"infoHash":"9ba8bab8fa9281a1ed4f482a6373c7281af250b4","infoHashBuffer":{"type":"Buffer","data":[155,168,186,184,250,146,129,161,237,79,72,42,99,115,199,40,26,242,80,180]},"announce":[],"urlList":[]}}